# xmcd
#
# Track frame offsets:
#	150
#	8983
#	18874
#	30316
#	40622
#	52440
#	62270
#	72345
#	81087
#	91009
#	101583
#	111928
#
# Disc length: 1644 seconds
#
# Revision: 0
# Processed by: cddbd v1.5.2PL0 Copyright (c) Steve Scherf et al.
# Submitted via: audiograbber 1.83.01
#
DISCID=8b066a0c
DTITLE=George Jones - Singing The Blues
DYEAR=1965
DGENRE=Crossover
TTITLE0=Singing The Blues
TTITLE1=Ragged But Right
TTITLE2=Life To Go
TTITLE3=Half As Much
TTITLE4=Money To Burn
TTITLE5=(I'll Be There) If You Want Me
TTITLE6=Don't Do This To Me
TTITLE7=You Gotta Be My Baby
TTITLE8=It's Been So Long
TTITLE9=The Last Town I Painted
TTITLE10=Uh, Uh, No
TTITLE11=Hearts In My Dream
EXTD=
EXTT0=
EXTT1=
EXTT2=
EXTT3=
EXTT4=
EXTT5=
EXTT6=
EXTT7=
EXTT8=
EXTT9=
EXTT10=
EXTT11=
PLAYORDER=
